<svg xmlns="http://www.w3.org/2000/svg" viewBox="0 0 512 512">
  <defs>
    <radialGradient id="bg" cx="50%" cy="35%" r="80%">
      <stop offset="0%" stop-color="#4a3f6b"/><stop offset="100%" stop-color="#2a2447"/>
    </radialGradient>
    <radialGradient id="face" cx="42%" cy="32%" r="80%">
      <stop offset="0%" stop-color="#a8e6c0"/><stop offset="60%" stop-color="#7fd4a4"/><stop offset="100%" stop-color="#5cbf8b"/>
    </radialGradient>
  </defs>
  <rect width="512" height="512" rx="110" fill="url(#bg)"/>
  <circle cx="256" cy="270" r="150" fill="url(#face)"/>
  <path d="M170 150 Q 158 100 190 94 Q 212 120 204 156 Z" fill="#fdf6de" stroke="#e8d9a8" stroke-width="6"/>
  <path d="M342 150 Q 354 100 322 94 Q 300 120 308 156 Z" fill="#fdf6de" stroke="#e8d9a8" stroke-width="6"/>
  <ellipse cx="204" cy="258" rx="24" ry="32" fill="#3a2e3d"/>
  <circle cx="196" cy="246" r="9" fill="#fff"/>
  <ellipse cx="308" cy="258" rx="24" ry="32" fill="#3a2e3d"/>
  <circle cx="300" cy="246" r="9" fill="#fff"/>
  <ellipse cx="158" cy="316" rx="22" ry="13" fill="#f79ec0" opacity=".6"/>
  <ellipse cx="354" cy="316" rx="22" ry="13" fill="#f79ec0" opacity=".6"/>
  <path d="M226 342 Q 256 362 286 342" fill="none" stroke="#3a2e3d" stroke-width="9" stroke-linecap="round"/>
</svg>
